# xmcd
#
# Track frame offsets:
#	150
#	17254
#	38304
#	56906
#	72761
#	98952
#	119747
#	139415
#	157795
#	171321
#	191369
#
# Disc length: 2749 seconds
#
# Revision: 0
# Processed by: cddbd v1.5.2PL0 Copyright (c) Steve Scherf et al.
# Submitted via: EasyCDDAExtractor 10.0.6.1
#
DISCID=8d0abb0b
DTITLE=Juan Madera - El aprendiz
DYEAR=2008
DGENRE=Electronic
TTITLE0=Shufflevolution
TTITLE1=Agua
TTITLE2=El viaje de corchea
TTITLE3=El baile del surigato
TTITLE4=De Campillo a Ibiza
TTITLE5=Figura potencial
TTITLE6=El trance de la primera toma
TTITLE7=Sesamo Marte
TTITLE8=Mario song
TTITLE9=Narcotico natural
TTITLE10=Jardin Blanco
EXTD=
EXTT0=
EXTT1=
EXTT2=
EXTT3=
EXTT4=
EXTT5=
EXTT6=
EXTT7=
EXTT8=
EXTT9=
EXTT10=
PLAYORDER=
